<?xml version="1.0" encoding="UTF-8" standalone="no"?>
<!-- Generator: Adobe Illustrator 17.1.0, SVG Export Plug-In . SVG Version: 6.00 Build 0)  -->

<svg
   xmlns:dc="http://purl.org/dc/elements/1.1/"
   xmlns:cc="http://creativecommons.org/ns#"
   xmlns:rdf="http://www.w3.org/1999/02/22-rdf-syntax-ns#"
   xmlns:svg="http://www.w3.org/2000/svg"
   xmlns="http://www.w3.org/2000/svg"
   xmlns:sodipodi="http://sodipodi.sourceforge.net/DTD/sodipodi-0.dtd"
   xmlns:inkscape="http://www.inkscape.org/namespaces/inkscape"
   version="1.1"
   id="Layer_1"
   x="0px"
   y="0px"
   width="10px"
   height="10px"
   viewBox="0 0 10 10"
   enable-background="new 0 0 10 10"
   xml:space="preserve"
   inkscape:version="0.91 r13725"
   sodipodi:docname="dot-10.svg"><metadata
     id="metadata17"><rdf:RDF><cc:Work
         rdf:about=""><dc:format>image/svg+xml</dc:format><dc:type
           rdf:resource="http://purl.org/dc/dcmitype/StillImage" /></cc:Work></rdf:RDF></metadata><defs
     id="defs15" /><sodipodi:namedview
     pagecolor="#ffffff"
     bordercolor="#666666"
     borderopacity="1"
     objecttolerance="10"
     gridtolerance="10"
     guidetolerance="10"
     inkscape:pageopacity="0"
     inkscape:pageshadow="2"
     inkscape:window-width="640"
     inkscape:window-height="480"
     id="namedview13"
     showgrid="false"
     inkscape:zoom="23.6"
     inkscape:cx="5"
     inkscape:cy="5"
     inkscape:window-x="4"
     inkscape:window-y="23"
     inkscape:window-maximized="0"
     inkscape:current-layer="Layer_1" /><path
     opacity="0.25"
     fill="#6b6b6b"
     enable-background="new    "
     d="M8,12c-2.2,0-4-1.8-4-4s1.8-4,4-4s4,1.8,4,4S10.2,12,8,12z"
     id="path3"
     style="fill:#ffffff" /><path
     opacity="0.5"
     fill="#6b6b6b"
     enable-background="new    "
     d="M8,11.5c-1.9,0-3.5-1.6-3.5-3.5S6.1,4.5,8,4.5s3.5,1.6,3.5,3.5  S9.9,11.5,8,11.5z"
     id="path5"
     style="fill:#ffffff" /><path
     opacity="0.75"
     fill="#6b6b6b"
     enable-background="new    "
     d="M8,11c-1.6,0-3-1.4-3-3s1.4-3,3-3s3,1.4,3,3S9.6,11,8,11z"
     id="path7"
     style="fill:#ffffff" /><circle
     fill="#FFFFFF"
     cx="8"
     cy="8"
     r="2.5"
     id="circle9"
     style="fill:#ffffff" /><circle
     cx="8"
     cy="8"
     r="2"
     id="circle11"
     style="fill:#6b6b6b;fill-opacity:1" /></svg>