<?xml version="1.0" encoding="UTF-8" standalone="no"?>
<!-- Generator: Adobe Illustrator 17.1.0, SVG Export Plug-In . SVG Version: 6.00 Build 0)  -->

<svg
   xmlns:dc="http://purl.org/dc/elements/1.1/"
   xmlns:cc="http://creativecommons.org/ns#"
   xmlns:rdf="http://www.w3.org/1999/02/22-rdf-syntax-ns#"
   xmlns:svg="http://www.w3.org/2000/svg"
   xmlns="http://www.w3.org/2000/svg"
   xmlns:sodipodi="http://sodipodi.sourceforge.net/DTD/sodipodi-0.dtd"
   xmlns:inkscape="http://www.inkscape.org/namespaces/inkscape"
   version="1.1"
   id="Layer_1"
   x="0px"
   y="0px"
   width="11px"
   height="11px"
   viewBox="0 0 11 11"
   enable-background="new 0 0 11 11"
   xml:space="preserve"
   inkscape:version="0.91 r13725"
   sodipodi:docname="dot-11.svg"><metadata
     id="metadata17"><rdf:RDF><cc:Work
         rdf:about=""><dc:format>image/svg+xml</dc:format><dc:type
           rdf:resource="http://purl.org/dc/dcmitype/StillImage" /></cc:Work></rdf:RDF></metadata><defs
     id="defs15" /><sodipodi:namedview
     pagecolor="#ffffff"
     bordercolor="#666666"
     borderopacity="1"
     objecttolerance="10"
     gridtolerance="10"
     guidetolerance="10"
     inkscape:pageopacity="0"
     inkscape:pageshadow="2"
     inkscape:window-width="1206"
     inkscape:window-height="825"
     id="namedview13"
     showgrid="false"
     inkscape:zoom="30.341309"
     inkscape:cx="-2.9277921"
     inkscape:cy="3.4658814"
     inkscape:window-x="1015"
     inkscape:window-y="381"
     inkscape:window-maximized="0"
     inkscape:current-layer="Layer_1" /><path
     opacity="0.25"
     fill="#6b6b6b"
     enable-background="new    "
     d="M5.5,9.8c-2.4,0-4.2-1.9-4.2-4.2s1.9-4.2,4.2-4.2  s4.2,1.9,4.2,4.2S7.9,9.8,5.5,9.8z"
     id="path3"
     style="fill:#ffffff" /><path
     opacity="0.5"
     fill="#6b6b6b"
     enable-background="new    "
     d="M5.5,9.2c-2.1,0-3.8-1.7-3.8-3.8s1.7-3.8,3.8-3.8  s3.8,1.7,3.8,3.8S7.6,9.2,5.5,9.2z"
     id="path5"
     style="fill:#ffffff" /><path
     opacity="0.75"
     fill="#6b6b6b"
     enable-background="new    "
     d="M5.5,8.8c-1.8,0-3.2-1.5-3.2-3.2s1.5-3.2,3.2-3.2  s3.2,1.5,3.2,3.2S7.3,8.8,5.5,8.8z"
     id="path7"
     style="fill:#ffffff" /><circle
     fill="#FFFFFF"
     cx="5.5"
     cy="5.5"
     r="2.8"
     id="circle9" /><circle
     cx="5.5"
     cy="5.5"
     r="2.2"
     id="circle11"
     style="fill:#6b6b6b;fill-opacity:1" /></svg>