<?xml version="1.0" encoding="utf-8"?>
<!-- Generator: Adobe Illustrator 17.1.0, SVG Export Plug-In . SVG Version: 6.00 Build 0)  -->
<!DOCTYPE svg PUBLIC "-//W3C//DTD SVG 1.1//EN" "http://www.w3.org/Graphics/SVG/1.1/DTD/svg11.dtd">
<svg version="1.1" xmlns="http://www.w3.org/2000/svg" xmlns:xlink="http://www.w3.org/1999/xlink" x="0px" y="0px" width="32px"
	 height="32px" viewBox="0 0 32 32" enable-background="new 0 0 32 32" xml:space="preserve">
<g id="Layer_1" display="none">
	<g display="inline">
		<rect x="18.2" y="12.9" fill="#1D1D1B" width="13.8" height="0.3"/>
		<rect x="18.2" y="10" fill="#1D1D1B" width="13.8" height="0.3"/>
		<rect x="18.2" y="7.1" fill="#1D1D1B" width="13.8" height="0.3"/>
		<rect x="18.2" y="4.3" fill="#1D1D1B" width="13.8" height="0.3"/>
		<rect x="18.2" y="1.4" fill="#1D1D1B" width="13.8" height="0.3"/>
		<rect x="18.2" y="11.4" fill="#1D1D1B" width="13.8" height="0.3"/>
		<rect x="18.2" y="8.6" fill="#1D1D1B" width="13.8" height="0.3"/>
		<rect x="18.2" y="5.7" fill="#1D1D1B" width="13.8" height="0.3"/>
		<rect x="18.2" y="2.8" fill="#1D1D1B" width="13.8" height="0.3"/>
		<rect x="18.1" y="12.9" fill="#1D1D1B" width="0" height="0.3"/>
		<rect x="18.1" y="10" fill="#1D1D1B" width="0" height="0.3"/>
		<rect x="18.1" y="7.1" fill="#1D1D1B" width="0" height="0.3"/>
		<rect x="18.1" y="4.3" fill="#1D1D1B" width="0" height="0.3"/>
		<rect x="18.1" y="1.4" fill="#1D1D1B" width="0" height="0.3"/>
		<rect x="18.1" y="11.4" fill="#1D1D1B" width="0" height="0.3"/>
		<rect x="18.1" y="8.6" fill="#1D1D1B" width="0" height="0.3"/>
		<rect x="18.1" y="5.7" fill="#1D1D1B" width="0" height="0.3"/>
		<rect x="18.1" y="2.8" fill="#1D1D1B" width="0" height="0.3"/>
		<rect x="18.2" y="27.3" fill="#1D1D1B" width="13.8" height="0.3"/>
		<rect x="18.2" y="24.4" fill="#1D1D1B" width="13.8" height="0.3"/>
		<rect x="18.2" y="21.5" fill="#1D1D1B" width="13.8" height="0.3"/>
		<rect x="18.2" y="18.6" fill="#1D1D1B" width="13.8" height="0.3"/>
		<rect x="18.2" y="15.8" fill="#1D1D1B" width="13.8" height="0.3"/>
		<rect x="18.2" y="25.8" fill="#1D1D1B" width="13.8" height="0.3"/>
		<rect x="18.2" y="22.9" fill="#1D1D1B" width="13.8" height="0.3"/>
		<rect x="18.2" y="20.1" fill="#1D1D1B" width="13.8" height="0.3"/>
		<rect x="18.2" y="17.2" fill="#1D1D1B" width="13.8" height="0.3"/>
		<rect x="18.2" y="14.3" fill="#1D1D1B" width="13.8" height="0.3"/>
		<rect x="18.1" y="27.3" fill="#1D1D1B" width="0" height="0.3"/>
		<rect x="18.1" y="24.4" fill="#1D1D1B" width="0" height="0.3"/>
		<rect x="18.1" y="21.5" fill="#1D1D1B" width="0" height="0.3"/>
		<rect x="18.1" y="18.6" fill="#1D1D1B" width="0" height="0.3"/>
		<rect x="18.1" y="15.8" fill="#1D1D1B" width="0" height="0.3"/>
		<rect x="18.1" y="25.8" fill="#1D1D1B" width="0" height="0.3"/>
		<rect x="18.1" y="22.9" fill="#1D1D1B" width="0" height="0.3"/>
		<rect x="18.1" y="20.1" fill="#1D1D1B" width="0" height="0.3"/>
		<rect x="18.1" y="17.2" fill="#1D1D1B" width="0" height="0.3"/>
		<rect x="18.1" y="14.3" fill="#1D1D1B" width="0" height="0.3"/>
		<rect x="18.2" y="30.1" fill="#1D1D1B" width="13.8" height="0.3"/>
		<rect x="18.2" y="31.6" fill="#1D1D1B" width="13.8" height="0.3"/>
		<rect x="18.2" y="28.7" fill="#1D1D1B" width="13.8" height="0.3"/>
		<rect x="18.1" y="30.1" fill="#1D1D1B" width="0" height="0.3"/>
		<rect x="18.1" y="31.6" fill="#1D1D1B" width="0" height="0.3"/>
		<rect x="18.1" y="28.7" fill="#1D1D1B" width="0" height="0.3"/>
		<polygon fill="#1D1D1B" points="18.1,13.2 18.1,13.2 18.1,12.9 18.1,12.9 3.8,12.9 3.8,13.2 		"/>
		<polygon fill="#1D1D1B" points="18.1,10.3 18.1,10.3 18.1,10 18.1,10 3.8,10 3.8,10.3 		"/>
		<polygon fill="#1D1D1B" points="18.1,7.4 18.1,7.4 18.1,7.1 18.1,7.1 3.8,7.1 3.8,7.4 		"/>
		<polygon fill="#1D1D1B" points="18.1,4.6 18.1,4.6 18.1,4.3 18.1,4.3 3.8,4.3 3.8,4.6 		"/>
		<polygon fill="#1D1D1B" points="18.1,1.7 18.1,1.7 18.1,1.4 18.1,1.4 3.8,1.4 3.8,1.7 		"/>
		<polygon fill="#1D1D1B" points="18.1,11.7 18.1,11.7 18.1,11.4 18.1,11.4 3.8,11.4 3.8,11.7 		"/>
		<polygon fill="#1D1D1B" points="18.1,8.9 18.1,8.9 18.1,8.6 18.1,8.6 3.8,8.6 3.8,8.9 		"/>
		<polygon fill="#1D1D1B" points="18.1,6 18.1,6 18.1,5.7 18.1,5.7 3.8,5.7 3.8,6 		"/>
		<polygon fill="#1D1D1B" points="18.1,3.1 18.1,3.1 18.1,2.8 18.1,2.8 3.8,2.8 3.8,3.1 		"/>
		<rect x="3.7" y="12.9" fill="#1D1D1B" width="0" height="0.3"/>
		<rect x="3.7" y="10" fill="#1D1D1B" width="0" height="0.3"/>
		<rect x="3.7" y="7.1" fill="#1D1D1B" width="0" height="0.3"/>
		<rect x="3.7" y="4.3" fill="#1D1D1B" width="0" height="0.3"/>
		<rect x="3.7" y="1.4" fill="#1D1D1B" width="0" height="0.3"/>
		<rect x="3.7" y="11.4" fill="#1D1D1B" width="0" height="0.3"/>
		<rect x="3.7" y="8.6" fill="#1D1D1B" width="0" height="0.3"/>
		<rect x="3.7" y="5.7" fill="#1D1D1B" width="0" height="0.3"/>
		<rect x="3.7" y="2.8" fill="#1D1D1B" width="0" height="0.3"/>
		<polygon fill="#1D1D1B" points="18.1,27.5 18.1,27.5 18.1,27.3 18.1,27.3 3.8,27.3 3.8,27.5 		"/>
		<polygon fill="#1D1D1B" points="18.1,24.7 18.1,24.7 18.1,24.4 18.1,24.4 3.8,24.4 3.8,24.7 		"/>
		<polygon fill="#1D1D1B" points="18.1,21.8 18.1,21.8 18.1,21.5 18.1,21.5 3.8,21.5 3.8,21.8 		"/>
		<polygon fill="#1D1D1B" points="18.1,18.9 18.1,18.9 18.1,18.6 18.1,18.6 3.8,18.6 3.8,18.9 		"/>
		<polygon fill="#1D1D1B" points="18.1,16 18.1,16 18.1,15.8 18.1,15.8 3.8,15.8 3.8,16 		"/>
		<polygon fill="#1D1D1B" points="18.1,26.1 18.1,26.1 18.1,25.8 18.1,25.8 3.8,25.8 3.8,26.1 		"/>
		<polygon fill="#1D1D1B" points="18.1,23.2 18.1,23.2 18.1,22.9 18.1,22.9 3.8,22.9 3.8,23.2 		"/>
		<polygon fill="#1D1D1B" points="18.1,20.4 18.1,20.4 18.1,20.1 18.1,20.1 3.8,20.1 3.8,20.4 		"/>
		<polygon fill="#1D1D1B" points="18.1,17.5 18.1,17.5 18.1,17.2 18.1,17.2 3.8,17.2 3.8,17.5 		"/>
		<polygon fill="#1D1D1B" points="18.1,14.6 18.1,14.6 18.1,14.3 18.1,14.3 3.8,14.3 3.8,14.6 		"/>
		<rect x="3.7" y="27.3" fill="#1D1D1B" width="0" height="0.3"/>
		<rect x="3.7" y="24.4" fill="#1D1D1B" width="0" height="0.3"/>
		<rect x="3.7" y="21.5" fill="#1D1D1B" width="0" height="0.3"/>
		<rect x="3.7" y="18.6" fill="#1D1D1B" width="0" height="0.3"/>
		<rect x="3.7" y="15.8" fill="#1D1D1B" width="0" height="0.3"/>
		<rect x="3.7" y="25.8" fill="#1D1D1B" width="0" height="0.3"/>
		<rect x="3.7" y="22.9" fill="#1D1D1B" width="0" height="0.3"/>
		<rect x="3.7" y="20.1" fill="#1D1D1B" width="0" height="0.3"/>
		<rect x="3.7" y="17.2" fill="#1D1D1B" width="0" height="0.3"/>
		<rect x="3.7" y="14.3" fill="#1D1D1B" width="0" height="0.3"/>
		<polygon fill="#1D1D1B" points="18.1,30.4 18.1,30.4 18.1,30.1 18.1,30.1 3.8,30.1 3.8,30.4 		"/>
		<polygon fill="#1D1D1B" points="18.1,31.9 18.1,31.9 18.1,31.6 18.1,31.6 3.8,31.6 3.8,31.9 		"/>
		<polygon fill="#1D1D1B" points="18.1,29 18.1,29 18.1,28.7 18.1,28.7 3.8,28.7 3.8,29 		"/>
		<rect x="3.7" y="30.1" fill="#1D1D1B" width="0" height="0.3"/>
		<rect x="3.7" y="31.6" fill="#1D1D1B" width="0" height="0.3"/>
		<rect x="3.7" y="28.7" fill="#1D1D1B" width="0" height="0.3"/>
		<polygon fill="#1D1D1B" points="3.7,13.2 3.7,12.9 3.7,12.9 0,12.9 0,13.2 3.7,13.2 		"/>
		<polygon fill="#1D1D1B" points="3.7,10.3 3.7,10 3.7,10 0,10 0,10.3 3.7,10.3 		"/>
		<polygon fill="#1D1D1B" points="3.7,7.4 3.7,7.1 3.7,7.1 0,7.1 0,7.4 3.7,7.4 		"/>
		<polygon fill="#1D1D1B" points="3.7,4.6 3.7,4.3 3.7,4.3 0,4.3 0,4.6 3.7,4.6 		"/>
		<polygon fill="#1D1D1B" points="3.7,1.7 3.7,1.4 3.7,1.4 0,1.4 0,1.7 3.7,1.7 		"/>
		<polygon fill="#1D1D1B" points="3.7,11.7 3.7,11.4 3.7,11.4 0,11.4 0,11.7 3.7,11.7 		"/>
		<polygon fill="#1D1D1B" points="3.7,8.9 3.7,8.6 3.7,8.6 0,8.6 0,8.9 3.7,8.9 		"/>
		<polygon fill="#1D1D1B" points="3.7,6 3.7,5.7 3.7,5.7 0,5.7 0,6 3.7,6 		"/>
		<polygon fill="#1D1D1B" points="3.7,3.1 3.7,2.8 3.7,2.8 0,2.8 0,3.1 3.7,3.1 		"/>
		<polygon fill="#1D1D1B" points="3.7,27.5 3.7,27.3 3.7,27.3 0,27.3 0,27.5 3.7,27.5 		"/>
		<polygon fill="#1D1D1B" points="3.7,24.7 3.7,24.4 3.7,24.4 0,24.4 0,24.7 3.7,24.7 		"/>
		<polygon fill="#1D1D1B" points="3.7,21.8 3.7,21.5 3.7,21.5 0,21.5 0,21.8 3.7,21.8 		"/>
		<polygon fill="#1D1D1B" points="3.7,18.9 3.7,18.6 3.7,18.6 0,18.6 0,18.9 3.7,18.9 		"/>
		<polygon fill="#1D1D1B" points="3.7,16 3.7,15.8 3.7,15.8 0,15.8 0,16 3.7,16 		"/>
		<polygon fill="#1D1D1B" points="3.7,26.1 3.7,25.8 3.7,25.8 0,25.8 0,26.1 3.7,26.1 		"/>
		<polygon fill="#1D1D1B" points="3.7,23.2 3.7,22.9 3.7,22.9 0,22.9 0,23.2 3.7,23.2 		"/>
		<polygon fill="#1D1D1B" points="3.7,20.4 3.7,20.1 3.7,20.1 0,20.1 0,20.4 3.7,20.4 		"/>
		<polygon fill="#1D1D1B" points="3.7,17.5 3.7,17.2 3.7,17.2 0,17.2 0,17.5 3.7,17.5 		"/>
		<polygon fill="#1D1D1B" points="3.7,14.6 3.7,14.3 3.7,14.3 0,14.3 0,14.6 3.7,14.6 		"/>
		<polygon fill="#1D1D1B" points="3.7,30.4 3.7,30.1 3.7,30.1 0,30.1 0,30.4 3.7,30.4 		"/>
		<polygon fill="#1D1D1B" points="3.7,31.9 3.7,31.6 3.7,31.6 0,31.6 0,31.9 3.7,31.9 		"/>
		<polygon fill="#1D1D1B" points="3.7,29 3.7,28.7 3.7,28.7 0,28.7 0,29 3.7,29 		"/>
	</g>
</g>
<g id="Layer_2">
	<g>
		<polygon fill="#1D1D1B" points="18.2,7 18.1,7 18.1,7 3.8,7 3.7,7 3.7,7 0,7 0,7 3.7,7 3.7,7 3.8,7 18.1,7 18.1,7 18.2,7 32,7 
			32,7 		"/>
		<polygon fill="#1D1D1B" points="18.2,6 18.1,6 18.1,6 3.8,6 3.7,6 3.7,6 0,6 0,6 3.7,6 3.7,6 3.8,6 18.1,6 18.1,6 18.2,6 32,6 
			32,6 		"/>
		<polygon fill="#1D1D1B" points="18.2,4 18.1,4 18.1,4 3.8,4 3.7,4 3.7,4 0,4 0,4 3.7,4 3.7,4 3.8,4 18.1,4 18.1,4 18.2,4 32,4 
			32,4 		"/>
		<polygon fill="#1D1D1B" points="18.2,1 18.1,1 18.1,1 3.8,1 3.7,1 3.7,1 0,1 0,1 3.7,1 3.7,1 3.8,1 18.1,1 18.1,1 18.2,1 32,1 
			32,1 		"/>
		<polygon fill="#1D1D1B" points="18.2,8 18.1,8 18.1,8 3.8,8 3.7,8 3.7,8 0,8 0,8 3.7,8 3.7,8 3.8,8 18.1,8 18.1,8 18.2,8 32,8 
			32,8 		"/>
		<polygon fill="#1D1D1B" points="18.2,9 18.1,9 18.1,9 3.8,9 3.7,9 3.7,9 0,9 0,9 3.7,9 3.7,9 3.8,9 18.1,9 18.1,9 18.2,9 32,9 
			32,9 		"/>
		<polygon fill="#1D1D1B" points="18.2,10 18.1,10 18.1,10 3.8,10 3.7,10 3.7,10 0,10 0,10 3.7,10 3.7,10 3.8,10 18.1,10 18.1,10 
			18.2,10 32,10 32,10 		"/>
		<polygon fill="#1D1D1B" points="18.2,11 18.1,11 18.1,11 3.8,11 3.7,11 3.7,11 0,11 0,11 3.7,11 3.7,11 3.8,11 18.1,11 18.1,11 
			18.2,11 32,11 32,11 		"/>
		<polygon fill="#1D1D1B" points="18.2,12 18.1,12 18.1,12 3.8,12 3.7,12 3.7,12 0,12 0,12 3.7,12 3.7,12 3.8,12 18.1,12 18.1,12 
			18.2,12 32,12 32,12 		"/>
		<polygon fill="#1D1D1B" points="18.2,13 18.1,13 18.1,13 3.8,13 3.7,13 3.7,13 0,13 0,13 3.7,13 3.7,13 3.8,13 18.1,13 18.1,13 
			18.2,13 32,13 32,13 		"/>
		<polygon fill="#1D1D1B" points="18.2,14 18.1,14 18.1,14 3.8,14 3.7,14 3.7,14 0,14 0,14 3.7,14 3.7,14 3.8,14 18.1,14 18.1,14 
			18.2,14 32,14 32,14 		"/>
		<polygon fill="#1D1D1B" points="18.2,15 18.1,15 18.1,15 3.8,15 3.7,15 3.7,15 0,15 0,15 3.7,15 3.7,15 3.8,15 18.1,15 18.1,15 
			18.2,15 32,15 32,15 		"/>
		<polygon fill="#1D1D1B" points="18.2,16 18.1,16 18.1,16 3.8,16 3.7,16 3.7,16 0,16 0,16 3.7,16 3.7,16 3.8,16 18.1,16 18.1,16 
			18.2,16 32,16 32,16 		"/>
		<polygon fill="#1D1D1B" points="18.2,17 18.1,17 18.1,17 3.8,17 3.7,17 3.7,17 0,17 0,17 3.7,17 3.7,17 3.8,17 18.1,17 18.1,17 
			18.2,17 32,17 32,17 		"/>
		<polygon fill="#1D1D1B" points="18.2,18 18.1,18 18.1,18 3.8,18 3.7,18 3.7,18 0,18 0,18 3.7,18 3.7,18 3.8,18 18.1,18 18.1,18 
			18.2,18 32,18 32,18 		"/>
		<polygon fill="#1D1D1B" points="18.2,19 18.1,19 18.1,19 3.8,19 3.7,19 3.7,19 0,19 0,19 3.7,19 3.7,19 3.8,19 18.1,19 18.1,19 
			18.2,19 32,19 32,19 		"/>
		<polygon fill="#1D1D1B" points="18.2,20 18.1,20 18.1,20 3.8,20 3.7,20 3.7,20 0,20 0,20 3.7,20 3.7,20 3.8,20 18.1,20 18.1,20 
			18.2,20 32,20 32,20 		"/>
		<polygon fill="#1D1D1B" points="18.2,21 18.1,21 18.1,21 3.8,21 3.7,21 3.7,21 0,21 0,21 3.7,21 3.7,21 3.8,21 18.1,21 18.1,21 
			18.2,21 32,21 32,21 		"/>
		<polygon fill="#1D1D1B" points="18.2,22 18.1,22 18.1,22 3.8,22 3.7,22 3.7,22 0,22 0,22 3.7,22 3.7,22 3.8,22 18.1,22 18.1,22 
			18.2,22 32,22 32,22 		"/>
		<polygon fill="#1D1D1B" points="18.2,23 18.1,23 18.1,23 3.8,23 3.7,23 3.7,23 0,23 0,23 3.7,23 3.7,23 3.8,23 18.1,23 18.1,23 
			18.2,23 32,23 32,23 		"/>
		<polygon fill="#1D1D1B" points="18.2,24 18.1,24 18.1,24 3.8,24 3.7,24 3.7,24 0,24 0,24 3.7,24 3.7,24 3.8,24 18.1,24 18.1,24 
			18.2,24 32,24 32,24 		"/>
		<polygon fill="#1D1D1B" points="18.2,25 18.1,25 18.1,25 3.8,25 3.7,25 3.7,25 0,25 0,25 3.7,25 3.7,25 3.8,25 18.1,25 18.1,25 
			18.2,25 32,25 32,25 		"/>
		<polygon fill="#1D1D1B" points="18.2,26 18.1,26 18.1,26 3.8,26 3.7,26 3.7,26 0,26 0,26 3.7,26 3.7,26 3.8,26 18.1,26 18.1,26 
			18.2,26 32,26 32,26 		"/>
		<polygon fill="#1D1D1B" points="18.2,27 18.1,27 18.1,27 3.8,27 3.7,27 3.7,27 0,27 0,27 3.7,27 3.7,27 3.8,27 18.1,27 18.1,27 
			18.2,27 32,27 32,27 		"/>
		<polygon fill="#1D1D1B" points="18.2,28 18.1,28 18.1,28 3.8,28 3.7,28 3.7,28 0,28 0,28 3.7,28 3.7,28 3.8,28 18.1,28 18.1,28 
			18.2,28 32,28 32,28 		"/>
		<polygon fill="#1D1D1B" points="18.2,29 18.1,29 18.1,29 3.8,29 3.7,29 3.7,29 0,29 0,29 3.7,29 3.7,29 3.8,29 18.1,29 18.1,29 
			18.2,29 32,29 32,29 		"/>
		<polygon fill="#1D1D1B" points="18.2,30 18.1,30 18.1,30 3.8,30 3.7,30 3.7,30 0,30 0,30 3.7,30 3.7,30 3.8,30 18.1,30 18.1,30 
			18.2,30 32,30 32,30 		"/>
		<polygon fill="#1D1D1B" points="18.2,31 18.1,31 18.1,31 3.8,31 3.7,31 3.7,31 0,31 0,31 3.7,31 3.7,31 3.8,31 18.1,31 18.1,31 
			18.2,31 32,31 32,31 		"/>
		<polygon fill="#1D1D1B" points="18.2,5 18.1,5 18.1,5 3.8,5 3.7,5 3.7,5 0,5 0,5 3.7,5 3.7,5 3.8,5 18.1,5 18.1,5 18.2,5 32,5 
			32,5 		"/>
		<polygon fill="#1D1D1B" points="18.2,2 18.1,2 18.1,2 3.8,2 3.7,2 3.7,2 0,2 0,2 3.7,2 3.7,2 3.8,2 18.1,2 18.1,2 18.2,2 32,2 
			32,2 		"/>
		<polygon fill="#1D1D1B" points="18.2,3 18.1,3 18.1,3 3.8,3 3.7,3 3.7,3 0,3 0,3 3.7,3 3.7,3 3.8,3 18.1,3 18.1,3 18.2,3 32,3 
			32,3 		"/>
	</g>
</g>
</svg>
