<?xml version="1.0" encoding="utf-8"?>
<!-- Generator: Adobe Illustrator 17.1.0, SVG Export Plug-In . SVG Version: 6.00 Build 0)  -->
<!DOCTYPE svg PUBLIC "-//W3C//DTD SVG 1.1//EN" "http://www.w3.org/Graphics/SVG/1.1/DTD/svg11.dtd">
<svg version="1.1" id="Layer_1" xmlns="http://www.w3.org/2000/svg" xmlns:xlink="http://www.w3.org/1999/xlink" x="0px" y="0px"
	 width="32px" height="32px" viewBox="0 0 32 32" enable-background="new 0 0 32 32" xml:space="preserve">
<g>
	<rect x="18.2" y="12.9" fill="#1D1D1B" width="13.8" height="0.3"/>
	<rect x="18.2" y="10" fill="#1D1D1B" width="13.8" height="0.3"/>
	<rect x="18.2" y="7.1" fill="#1D1D1B" width="13.8" height="0.3"/>
	<rect x="18.2" y="4.3" fill="#1D1D1B" width="13.8" height="0.3"/>
	<rect x="18.2" y="1.4" fill="#1D1D1B" width="13.8" height="0.3"/>
	<rect x="18.2" y="11.4" fill="#1D1D1B" width="13.8" height="0.3"/>
	<rect x="18.2" y="8.6" fill="#1D1D1B" width="13.8" height="0.3"/>
	<rect x="18.2" y="5.7" fill="#1D1D1B" width="13.8" height="0.3"/>
	<rect x="18.2" y="2.8" fill="#1D1D1B" width="13.8" height="0.3"/>
	<rect x="18.1" y="12.9" fill="#1D1D1B" width="0" height="0.3"/>
	<rect x="18.1" y="10" fill="#1D1D1B" width="0" height="0.3"/>
	<rect x="18.1" y="7.1" fill="#1D1D1B" width="0" height="0.3"/>
	<rect x="18.1" y="4.3" fill="#1D1D1B" width="0" height="0.3"/>
	<rect x="18.1" y="1.4" fill="#1D1D1B" width="0" height="0.3"/>
	<rect x="18.1" y="11.4" fill="#1D1D1B" width="0" height="0.3"/>
	<rect x="18.1" y="8.6" fill="#1D1D1B" width="0" height="0.3"/>
	<rect x="18.1" y="5.7" fill="#1D1D1B" width="0" height="0.3"/>
	<rect x="18.1" y="2.8" fill="#1D1D1B" width="0" height="0.3"/>
	<rect x="18.2" y="27.3" fill="#1D1D1B" width="13.8" height="0.3"/>
	<rect x="18.2" y="24.4" fill="#1D1D1B" width="13.8" height="0.3"/>
	<rect x="18.2" y="21.5" fill="#1D1D1B" width="13.8" height="0.3"/>
	<rect x="18.2" y="18.6" fill="#1D1D1B" width="13.8" height="0.3"/>
	<rect x="18.2" y="15.8" fill="#1D1D1B" width="13.8" height="0.3"/>
	<rect x="18.2" y="25.8" fill="#1D1D1B" width="13.8" height="0.3"/>
	<rect x="18.2" y="22.9" fill="#1D1D1B" width="13.8" height="0.3"/>
	<rect x="18.2" y="20.1" fill="#1D1D1B" width="13.8" height="0.3"/>
	<rect x="18.2" y="17.2" fill="#1D1D1B" width="13.8" height="0.3"/>
	<rect x="18.2" y="14.3" fill="#1D1D1B" width="13.8" height="0.3"/>
	<rect x="18.1" y="27.3" fill="#1D1D1B" width="0" height="0.3"/>
	<rect x="18.1" y="24.4" fill="#1D1D1B" width="0" height="0.3"/>
	<rect x="18.1" y="21.5" fill="#1D1D1B" width="0" height="0.3"/>
	<rect x="18.1" y="18.6" fill="#1D1D1B" width="0" height="0.3"/>
	<rect x="18.1" y="15.8" fill="#1D1D1B" width="0" height="0.3"/>
	<rect x="18.1" y="25.8" fill="#1D1D1B" width="0" height="0.3"/>
	<rect x="18.1" y="22.9" fill="#1D1D1B" width="0" height="0.3"/>
	<rect x="18.1" y="20.1" fill="#1D1D1B" width="0" height="0.3"/>
	<rect x="18.1" y="17.2" fill="#1D1D1B" width="0" height="0.3"/>
	<rect x="18.1" y="14.3" fill="#1D1D1B" width="0" height="0.3"/>
	<rect x="18.2" y="30.1" fill="#1D1D1B" width="13.8" height="0.3"/>
	<rect x="18.2" y="31.6" fill="#1D1D1B" width="13.8" height="0.3"/>
	<rect x="18.2" y="28.7" fill="#1D1D1B" width="13.8" height="0.3"/>
	<rect x="18.1" y="30.1" fill="#1D1D1B" width="0" height="0.3"/>
	<rect x="18.1" y="31.6" fill="#1D1D1B" width="0" height="0.3"/>
	<rect x="18.1" y="28.7" fill="#1D1D1B" width="0" height="0.3"/>
	<polygon fill="#1D1D1B" points="18.1,13.2 18.1,13.2 18.1,12.9 18.1,12.9 3.8,12.9 3.8,13.2 	"/>
	<polygon fill="#1D1D1B" points="18.1,10.3 18.1,10.3 18.1,10 18.1,10 3.8,10 3.8,10.3 	"/>
	<polygon fill="#1D1D1B" points="18.1,7.4 18.1,7.4 18.1,7.1 18.1,7.1 3.8,7.1 3.8,7.4 	"/>
	<polygon fill="#1D1D1B" points="18.1,4.6 18.1,4.6 18.1,4.3 18.1,4.3 3.8,4.3 3.8,4.6 	"/>
	<polygon fill="#1D1D1B" points="18.1,1.7 18.1,1.7 18.1,1.4 18.1,1.4 3.8,1.4 3.8,1.7 	"/>
	<polygon fill="#1D1D1B" points="18.1,11.7 18.1,11.7 18.1,11.4 18.1,11.4 3.8,11.4 3.8,11.7 	"/>
	<polygon fill="#1D1D1B" points="18.1,8.9 18.1,8.9 18.1,8.6 18.1,8.6 3.8,8.6 3.8,8.9 	"/>
	<polygon fill="#1D1D1B" points="18.1,6 18.1,6 18.1,5.7 18.1,5.7 3.8,5.7 3.8,6 	"/>
	<polygon fill="#1D1D1B" points="18.1,3.1 18.1,3.1 18.1,2.8 18.1,2.8 3.8,2.8 3.8,3.1 	"/>
	<rect x="3.7" y="12.9" fill="#1D1D1B" width="0" height="0.3"/>
	<rect x="3.7" y="10" fill="#1D1D1B" width="0" height="0.3"/>
	<rect x="3.7" y="7.1" fill="#1D1D1B" width="0" height="0.3"/>
	<rect x="3.7" y="4.3" fill="#1D1D1B" width="0" height="0.3"/>
	<rect x="3.7" y="1.4" fill="#1D1D1B" width="0" height="0.3"/>
	<rect x="3.7" y="11.4" fill="#1D1D1B" width="0" height="0.3"/>
	<rect x="3.7" y="8.6" fill="#1D1D1B" width="0" height="0.3"/>
	<rect x="3.7" y="5.7" fill="#1D1D1B" width="0" height="0.3"/>
	<rect x="3.7" y="2.8" fill="#1D1D1B" width="0" height="0.3"/>
	<polygon fill="#1D1D1B" points="18.1,27.5 18.1,27.5 18.1,27.3 18.1,27.3 3.8,27.3 3.8,27.5 	"/>
	<polygon fill="#1D1D1B" points="18.1,24.7 18.1,24.7 18.1,24.4 18.1,24.4 3.8,24.4 3.8,24.7 	"/>
	<polygon fill="#1D1D1B" points="18.1,21.8 18.1,21.8 18.1,21.5 18.1,21.5 3.8,21.5 3.8,21.8 	"/>
	<polygon fill="#1D1D1B" points="18.1,18.9 18.1,18.9 18.1,18.6 18.1,18.6 3.8,18.6 3.8,18.9 	"/>
	<polygon fill="#1D1D1B" points="18.1,16 18.1,16 18.1,15.8 18.1,15.8 3.8,15.8 3.8,16 	"/>
	<polygon fill="#1D1D1B" points="18.1,26.1 18.1,26.1 18.1,25.8 18.1,25.8 3.8,25.8 3.8,26.1 	"/>
	<polygon fill="#1D1D1B" points="18.1,23.2 18.1,23.2 18.1,22.9 18.1,22.9 3.8,22.9 3.8,23.2 	"/>
	<polygon fill="#1D1D1B" points="18.1,20.4 18.1,20.4 18.1,20.1 18.1,20.1 3.8,20.1 3.8,20.4 	"/>
	<polygon fill="#1D1D1B" points="18.1,17.5 18.1,17.5 18.1,17.2 18.1,17.2 3.8,17.2 3.8,17.5 	"/>
	<polygon fill="#1D1D1B" points="18.1,14.6 18.1,14.6 18.1,14.3 18.1,14.3 3.8,14.3 3.8,14.6 	"/>
	<rect x="3.7" y="27.3" fill="#1D1D1B" width="0" height="0.3"/>
	<rect x="3.7" y="24.4" fill="#1D1D1B" width="0" height="0.3"/>
	<rect x="3.7" y="21.5" fill="#1D1D1B" width="0" height="0.3"/>
	<rect x="3.7" y="18.6" fill="#1D1D1B" width="0" height="0.3"/>
	<rect x="3.7" y="15.8" fill="#1D1D1B" width="0" height="0.3"/>
	<rect x="3.7" y="25.8" fill="#1D1D1B" width="0" height="0.3"/>
	<rect x="3.7" y="22.9" fill="#1D1D1B" width="0" height="0.3"/>
	<rect x="3.7" y="20.1" fill="#1D1D1B" width="0" height="0.3"/>
	<rect x="3.7" y="17.2" fill="#1D1D1B" width="0" height="0.3"/>
	<rect x="3.7" y="14.3" fill="#1D1D1B" width="0" height="0.3"/>
	<polygon fill="#1D1D1B" points="18.1,30.4 18.1,30.4 18.1,30.1 18.1,30.1 3.8,30.1 3.8,30.4 	"/>
	<polygon fill="#1D1D1B" points="18.1,31.9 18.1,31.9 18.1,31.6 18.1,31.6 3.8,31.6 3.8,31.9 	"/>
	<polygon fill="#1D1D1B" points="18.1,29 18.1,29 18.1,28.7 18.1,28.7 3.8,28.7 3.8,29 	"/>
	<rect x="3.7" y="30.1" fill="#1D1D1B" width="0" height="0.3"/>
	<rect x="3.7" y="31.6" fill="#1D1D1B" width="0" height="0.3"/>
	<rect x="3.7" y="28.7" fill="#1D1D1B" width="0" height="0.3"/>
	<polygon fill="#1D1D1B" points="3.7,13.2 3.7,12.9 3.7,12.9 0,12.9 0,13.2 3.7,13.2 	"/>
	<polygon fill="#1D1D1B" points="3.7,10.3 3.7,10 3.7,10 0,10 0,10.3 3.7,10.3 	"/>
	<polygon fill="#1D1D1B" points="3.7,7.4 3.7,7.1 3.7,7.1 0,7.1 0,7.4 3.7,7.4 	"/>
	<polygon fill="#1D1D1B" points="3.7,4.6 3.7,4.3 3.7,4.3 0,4.3 0,4.6 3.7,4.6 	"/>
	<polygon fill="#1D1D1B" points="3.7,1.7 3.7,1.4 3.7,1.4 0,1.4 0,1.7 3.7,1.7 	"/>
	<polygon fill="#1D1D1B" points="3.7,11.7 3.7,11.4 3.7,11.4 0,11.4 0,11.7 3.7,11.7 	"/>
	<polygon fill="#1D1D1B" points="3.7,8.9 3.7,8.6 3.7,8.6 0,8.6 0,8.9 3.7,8.9 	"/>
	<polygon fill="#1D1D1B" points="3.7,6 3.7,5.7 3.7,5.7 0,5.7 0,6 3.7,6 	"/>
	<polygon fill="#1D1D1B" points="3.7,3.1 3.7,2.8 3.7,2.8 0,2.8 0,3.1 3.7,3.1 	"/>
	<polygon fill="#1D1D1B" points="3.7,27.5 3.7,27.3 3.7,27.3 0,27.3 0,27.5 3.7,27.5 	"/>
	<polygon fill="#1D1D1B" points="3.7,24.7 3.7,24.4 3.7,24.4 0,24.4 0,24.7 3.7,24.7 	"/>
	<polygon fill="#1D1D1B" points="3.7,21.8 3.7,21.5 3.7,21.5 0,21.5 0,21.8 3.7,21.8 	"/>
	<polygon fill="#1D1D1B" points="3.7,18.9 3.7,18.6 3.7,18.6 0,18.6 0,18.9 3.7,18.9 	"/>
	<polygon fill="#1D1D1B" points="3.7,16 3.7,15.8 3.7,15.8 0,15.8 0,16 3.7,16 	"/>
	<polygon fill="#1D1D1B" points="3.7,26.1 3.7,25.8 3.7,25.8 0,25.8 0,26.1 3.7,26.1 	"/>
	<polygon fill="#1D1D1B" points="3.7,23.2 3.7,22.9 3.7,22.9 0,22.9 0,23.2 3.7,23.2 	"/>
	<polygon fill="#1D1D1B" points="3.7,20.4 3.7,20.1 3.7,20.1 0,20.1 0,20.4 3.7,20.4 	"/>
	<polygon fill="#1D1D1B" points="3.7,17.5 3.7,17.2 3.7,17.2 0,17.2 0,17.5 3.7,17.5 	"/>
	<polygon fill="#1D1D1B" points="3.7,14.6 3.7,14.3 3.7,14.3 0,14.3 0,14.6 3.7,14.6 	"/>
	<polygon fill="#1D1D1B" points="3.7,30.4 3.7,30.1 3.7,30.1 0,30.1 0,30.4 3.7,30.4 	"/>
	<polygon fill="#1D1D1B" points="3.7,31.9 3.7,31.6 3.7,31.6 0,31.6 0,31.9 3.7,31.9 	"/>
	<polygon fill="#1D1D1B" points="3.7,29 3.7,28.7 3.7,28.7 0,28.7 0,29 3.7,29 	"/>
</g>
</svg>
